STARTFONT 2.1
COMMENT
COMMENT  Copyright (c) 2008, Your Name Here
COMMENT
COMMENT  License to copy and distribute for both commercial and
COMMENT  non-commercial use is herby granted, provided this notice
COMMENT  is preserved.
COMMENT
COMMENT  yourEmail@your.Domain
COMMENT  http://web.server/YourWebPageIfYouHaveOne/
COMMENT  Whatever else you want to put here
COMMENT
COMMENT  Produced with bdfedit, a tcl/tk font editing program
COMMENT  written by Thomas A. Fine
FONT -Gohu-GohuFont-Medium-R-Normal--22-80-100-100-C-60-ISO8859-1
SIZE 11 100 100
FONTBOUNDINGBOX 12 22 0 -4
STARTPROPERTIES 11
FOUNDRY "Fine"
FAMILY_NAME ""
WEIGHT_NAME "Medium"
SLANT "R"
SETWIDTH_NAME "Normal"
SPACING "c"
CHARSET_REGISTRY "ISO-8859"
CHARSET_ENCODING "1"
COPYRIGHT "Designer of this font retains full rights under the law"
FONT_ASCENT  18
FONT_DESCENT 4
ENDPROPERTIES
CHARS 191
STARTCHAR SPACE
ENCODING 32
SWIDTH 1090 0
DWIDTH 12 0
BBX 0 0 0 0
BITMAP
ENDCHAR
STARTCHAR EXCLAMATION MARK
ENCODING 33
SWIDTH 1090 0
DWIDTH 12 0
BBX 1 16 5 0
BITMAP
80
80
80
80
80
80
80
80
80
80
80
80
00
00
80
80
ENDCHAR
STARTCHAR QUOTATION MARK
ENCODING 34
SWIDTH 1090 0
DWIDTH 12 0
BBX 5 6 3 10
BITMAP
88
88
88
88
88
88
ENDCHAR
STARTCHAR NUMBER SIGN
ENCODING 35
SWIDTH 1090 0
DWIDTH 12 0
BBX 10 14 1 0
BITMAP
3300
3300
3300
3300
ffc0
ffc0
3300
3300
ffc0
ffc0
3300
3300
3300
3300
ENDCHAR
STARTCHAR DOLLAR SIGN
ENCODING 36
SWIDTH 1090 0
DWIDTH 12 0
BBX 11 19 0 -2
BITMAP
0400
0400
0400
3f80
4440
8420
8420
8400
4400
3f80
0440
0420
0420
8420
4440
3f80
0400
0400
0400
ENDCHAR
STARTCHAR PERCENT SIGN
ENCODING 37
SWIDTH 1090 0
DWIDTH 12 0
BBX 10 12 0 1
BITMAP
3040
4840
4880
3100
0200
0400
0800
1000
2300
4480
8480
8300
ENDCHAR
STARTCHAR AMPERSAND
ENCODING 38
SWIDTH 1090 0
DWIDTH 12 0
BBX 10 14 1 0
BITMAP
3800
4400
8200
8200
8400
4800
3000
3000
4840
8480
8300
8300
4480
3840
ENDCHAR
STARTCHAR APOSTROPHE
ENCODING 39
SWIDTH 1090 0
DWIDTH 12 0
BBX 1 6 5 10
BITMAP
80
80
80
80
80
80
ENDCHAR
STARTCHAR LEFT PARENTHESIS
ENCODING 40
SWIDTH 1090 0
DWIDTH 12 0
BBX 5 18 3 -2
BITMAP
08
10
20
40
40
40
80
80
80
80
80
80
40
40
40
20
10
08
ENDCHAR
STARTCHAR RIGHT PARENTHESIS
ENCODING 41
SWIDTH 1090 0
DWIDTH 12 0
BBX 5 18 2 -2
BITMAP
80
40
20
10
10
10
08
08
08
08
08
08
10
10
10
20
40
80
ENDCHAR
STARTCHAR ASTERISK
ENCODING 42
SWIDTH 1090 0
DWIDTH 12 0
BBX 10 10 0 2
BITMAP
0c00
0c00
ccc0
ccc0
3f00
3f00
ccc0
ccc0
0c00
0c00
ENDCHAR
STARTCHAR PLUS SIGN
ENCODING 43
SWIDTH 1090 0
DWIDTH 12 0
BBX 9 9 1 2
BITMAP
0800
0800
0800
0800
ff80
0800
0800
0800
0800
ENDCHAR
STARTCHAR COMMA
ENCODING 44
SWIDTH 1090 0
DWIDTH 12 0
BBX 3 5 3 -3
BITMAP
60
60
20
40
80
ENDCHAR
STARTCHAR HYPHEN-MINUS
ENCODING 45
SWIDTH 1090 0
DWIDTH 12 0
BBX 10 1 1 6
BITMAP
ffc0
ENDCHAR
STARTCHAR FULL STOP
ENCODING 46
SWIDTH 1090 0
DWIDTH 12 0
BBX 2 2 2 0
BITMAP
c0
c0
ENDCHAR
STARTCHAR SOLIDUS
ENCODING 47
SWIDTH 1090 0
DWIDTH 12 0
BBX 10 20 1 -4
BITMAP
0040
0040
0080
0080
0100
0100
0200
0200
0400
0400
0800
0800
1000
1000
2000
2000
4000
4000
8000
8000
ENDCHAR
STARTCHAR DIGIT ZERO
ENCODING 48
SWIDTH 1090 0
DWIDTH 12 0
BBX 10 14 1 0
BITMAP
3f00
4080
8040
80c0
8140
8240
8440
8840
9040
a040
c040
8040
4080
3f00
ENDCHAR
STARTCHAR DIGIT ONE
ENCODING 49
SWIDTH 1090 0
DWIDTH 12 0
BBX 5 14 2 0
BITMAP
08
18
28
48
88
08
08
08
08
08
08
08
08
08
ENDCHAR
STARTCHAR DIGIT TWO
ENCODING 50
SWIDTH 1090 0
DWIDTH 12 0
BBX 10 14 0 0
BITMAP
3f00
4080
8040
0040
0040
0080
0100
0200
0400
0800
1000
2000
4000
ffc0
ENDCHAR
STARTCHAR DIGIT THREE
ENCODING 51
SWIDTH 1090 0
DWIDTH 12 0
BBX 10 14 0 0
BITMAP
3f00
4080
8040
0040
0040
0040
0f80
0080
0040
0040
8040
8040
4080
3f00
ENDCHAR
STARTCHAR DIGIT FOUR
ENCODING 52
SWIDTH 1090 0
DWIDTH 12 0
BBX 10 14 1 0
BITMAP
0200
0600
0a00
1200
2200
4200
8200
8200
ffc0
0200
0200
0200
0200
0200
ENDCHAR
STARTCHAR DIGIT FIVE
ENCODING 53
SWIDTH 1090 0
DWIDTH 12 0
BBX 10 14 1 0
BITMAP
ffc0
8000
8000
8000
ff00
0080
0040
0040
0040
0040
8040
8040
4080
3f00
ENDCHAR
STARTCHAR DIGIT SIX
ENCODING 54
SWIDTH 1090 0
DWIDTH 12 0
BBX 10 14 1 0
BITMAP
3f00
4000
8000
8000
8000
ff80
8040
8040
8040
8040
8040
8040
4080
3f00
ENDCHAR
STARTCHAR DIGIT SEVEN
ENCODING 55
SWIDTH 1090 0
DWIDTH 12 0
BBX 9 14 1 0
BITMAP
ff80
0080
0080
0080
0100
0200
0200
0400
0800
1000
1000
1000
1000
1000
ENDCHAR
STARTCHAR DIGIT EIGHT
ENCODING 56
SWIDTH 1090 0
DWIDTH 12 0
BBX 10 14 1 0
BITMAP
3f00
4080
8040
8040
8040
c080
3f00
4080
8040
8040
8040
8040
4080
3f00
ENDCHAR
STARTCHAR DIGIT NINE
ENCODING 57
SWIDTH 1090 0
DWIDTH 12 0
BBX 10 14 1 0
BITMAP
3f00
4080
8040
8040
8040
8040
4040
3fc0
0040
0040
0040
0040
0080
3f00
ENDCHAR
STARTCHAR COLON
ENCODING 58
SWIDTH 1090 0
DWIDTH 12 0
BBX 2 9 4 1
BITMAP
c0
c0
00
00
00
00
00
c0
c0
ENDCHAR
STARTCHAR SEMICOLON
ENCODING 59
SWIDTH 1090 0
DWIDTH 12 0
BBX 3 13 3 -3
BITMAP
60
60
00
00
00
00
00
00
60
60
20
40
80
ENDCHAR
STARTCHAR LESS-THAN SIGN
ENCODING 60
SWIDTH 1090 0
DWIDTH 12 0
BBX 7 14 3 0
BITMAP
02
04
08
10
20
40
80
80
40
20
10
08
04
02
ENDCHAR
STARTCHAR EQUALS SIGN
ENCODING 61
SWIDTH 1090 0
DWIDTH 12 0
BBX 10 5 1 4
BITMAP
ffc0
0000
0000
0000
ffc0
ENDCHAR
STARTCHAR GREATER-THAN SIGN
ENCODING 62
SWIDTH 1090 0
DWIDTH 12 0
BBX 7 14 2 0
BITMAP
80
40
20
10
08
04
02
02
04
08
10
20
40
80
ENDCHAR
STARTCHAR QUESTION MARK
ENCODING 63
SWIDTH 1090 0
DWIDTH 12 0
BBX 10 14 0 0
BITMAP
3f00
3f00
c0c0
c0c0
00c0
00c0
0300
0300
0c00
0c00
0000
0000
0c00
0c00
ENDCHAR
STARTCHAR COMMERCIAL AT
ENCODING 64
SWIDTH 1090 0
DWIDTH 12 0
BBX 10 14 1 0
BITMAP
3f00
4080
8040
8040
8fc0
8840
8840
8840
8840
8fc0
8000
8000
4000
3fc0
ENDCHAR
STARTCHAR LATIN CAPITAL LETTER A
ENCODING 65
SWIDTH 1090 0
DWIDTH 12 0
BBX 10 16 1 0
BITMAP
3f00
4080
8040
8040
8040
8040
8040
ffc0
8040
8040
8040
8040
8040
8040
8040
8040
ENDCHAR
STARTCHAR LATIN CAPITAL LETTER B
ENCODING 66
SWIDTH 1090 0
DWIDTH 12 0
BBX 10 16 1 0
BITMAP
ff00
8080
8040
8040
8040
8040
8040
ff80
8040
8040
8040
8040
8040
8040
8080
ff00
ENDCHAR
STARTCHAR LATIN CAPITAL LETTER C
ENCODING 67
SWIDTH 1090 0
DWIDTH 12 0
BBX 10 16 1 0
BITMAP
3f00
4080
8040
8000
8000
8000
8000
8000
8000
8000
8000
8000
8000
8040
4080
3f00
ENDCHAR
STARTCHAR LATIN CAPITAL LETTER D
ENCODING 68
SWIDTH 1090 0
DWIDTH 12 0
BBX 10 16 1 0
BITMAP
ff00
8080
8040
8040
8040
8040
8040
8040
8040
8040
8040
8040
8040
8040
8080
ff00
ENDCHAR
STARTCHAR LATIN CAPITAL LETTER E
ENCODING 69
SWIDTH 1090 0
DWIDTH 12 0
BBX 10 16 1 0
BITMAP
ffc0
8000
8000
8000
8000
8000
8000
ff00
8000
8000
8000
8000
8000
8000
8000
ffc0
ENDCHAR
STARTCHAR LATIN CAPITAL LETTER F
ENCODING 70
SWIDTH 1090 0
DWIDTH 12 0
BBX 10 16 1 0
BITMAP
ffc0
8000
8000
8000
8000
8000
8000
ff00
8000
8000
8000
8000
8000
8000
8000
8000
ENDCHAR
STARTCHAR LATIN CAPITAL LETTER G
ENCODING 71
SWIDTH 1090 0
DWIDTH 12 0
BBX 10 16 1 0
BITMAP
3f00
4080
8040
8040
8000
8000
8000
8fc0
8040
8040
8040
8040
8040
8040
4080
3f00
ENDCHAR
STARTCHAR LATIN CAPITAL LETTER H
ENCODING 72
SWIDTH 1090 0
DWIDTH 12 0
BBX 10 16 1 0
BITMAP
8040
8040
8040
8040
8040
8040
8040
ffc0
8040
8040
8040
8040
8040
8040
8040
8040
ENDCHAR
STARTCHAR LATIN CAPITAL LETTER I
ENCODING 73
SWIDTH 1090 0
DWIDTH 12 0
BBX 5 16 3 0
BITMAP
f8
20
20
20
20
20
20
20
20
20
20
20
20
20
20
f8
ENDCHAR
STARTCHAR LATIN CAPITAL LETTER J
ENCODING 74
SWIDTH 1090 0
DWIDTH 12 0
BBX 10 16 1 0
BITMAP
0040
0040
0040
0040
0040
0040
0040
0040
0040
0040
8040
8040
8040
8040
4080
3f00
ENDCHAR
STARTCHAR LATIN CAPITAL LETTER K
ENCODING 75
SWIDTH 1090 0
DWIDTH 12 0
BBX 10 16 1 0
BITMAP
8040
8080
8100
8200
8400
8800
9000
f000
8800
8400
8200
8100
8080
8040
8040
8040
ENDCHAR
STARTCHAR LATIN CAPITAL LETTER L
ENCODING 76
SWIDTH 1090 0
DWIDTH 12 0
BBX 10 16 1 0
BITMAP
8000
8000
8000
8000
8000
8000
8000
8000
8000
8000
8000
8000
8000
8000
8000
ffc0
ENDCHAR
STARTCHAR LATIN CAPITAL LETTER M
ENCODING 77
SWIDTH 1090 0
DWIDTH 12 0
BBX 10 16 1 0
BITMAP
8040
c0c0
a140
9240
8c40
8c40
8040
8040
8040
8040
8040
8040
8040
8040
8040
8040
ENDCHAR
STARTCHAR LATIN CAPITAL LETTER N
ENCODING 78
SWIDTH 1090 0
DWIDTH 12 0
BBX 10 16 1 0
BITMAP
8040
c040
a040
a040
9040
9040
8840
8840
8440
8440
8240
8240
8140
8140
80c0
8040
ENDCHAR
STARTCHAR LATIN CAPITAL LETTER O
ENCODING 79
SWIDTH 1090 0
DWIDTH 12 0
BBX 10 16 1 0
BITMAP
3f00
4080
8040
8040
8040
8040
8040
8040
8040
8040
8040
8040
8040
8040
4080
3f00
ENDCHAR
STARTCHAR LATIN CAPITAL LETTER P
ENCODING 80
SWIDTH 1090 0
DWIDTH 12 0
BBX 10 16 1 0
BITMAP
ff00
8080
8040
8040
8040
8040
8080
ff00
8000
8000
8000
8000
8000
8000
8000
8000
ENDCHAR
STARTCHAR LATIN CAPITAL LETTER Q
ENCODING 81
SWIDTH 1090 0
DWIDTH 12 0
BBX 10 17 1 -1
BITMAP
3f00
4080
8040
8040
8040
8040
8040
8040
8040
8040
8040
8440
8240
8140
4080
3f40
0040
ENDCHAR
STARTCHAR LATIN CAPITAL LETTER R
ENCODING 82
SWIDTH 1090 0
DWIDTH 12 0
BBX 10 16 0 0
BITMAP
ff00
8080
8040
8040
8040
8040
8080
ff00
8100
8080
8040
8040
8040
8040
8040
8040
ENDCHAR
STARTCHAR LATIN CAPITAL LETTER S
ENCODING 83
SWIDTH 1090 0
DWIDTH 12 0
BBX 10 16 1 0
BITMAP
3f00
4080
8040
8040
8000
8000
8000
7f80
0040
0040
0040
0040
8040
8040
4080
3f00
ENDCHAR
STARTCHAR LATIN CAPITAL LETTER T
ENCODING 84
SWIDTH 1090 0
DWIDTH 12 0
BBX 9 16 1 0
BITMAP
ff80
0800
0800
0800
0800
0800
0800
0800
0800
0800
0800
0800
0800
0800
0800
0800
ENDCHAR
STARTCHAR LATIN CAPITAL LETTER U
ENCODING 85
SWIDTH 1090 0
DWIDTH 12 0
BBX 10 16 1 0
BITMAP
8040
8040
8040
8040
8040
8040
8040
8040
8040
8040
8040
8040
8040
8040
4080
3f00
ENDCHAR
STARTCHAR LATIN CAPITAL LETTER V
ENCODING 86
SWIDTH 1090 0
DWIDTH 12 0
BBX 10 16 1 0
BITMAP
8040
8040
8040
8040
8040
8040
8040
8040
4080
4080
2100
2100
1200
1200
0c00
0c00
ENDCHAR
STARTCHAR LATIN CAPITAL LETTER W
ENCODING 87
SWIDTH 1090 0
DWIDTH 12 0
BBX 11 16 0 0
BITMAP
8020
8020
8020
8020
8020
8020
8420
8420
8420
8420
8420
4440
4a40
3180
2080
2080
ENDCHAR
STARTCHAR LATIN CAPITAL LETTER X
ENCODING 88
SWIDTH 1090 0
DWIDTH 12 0
BBX 10 16 1 0
BITMAP
8040
8040
8040
4080
2100
1200
0c00
0c00
1200
2100
4080
8040
8040
8040
8040
8040
ENDCHAR
STARTCHAR LATIN CAPITAL LETTER Y
ENCODING 89
SWIDTH 1090 0
DWIDTH 12 0
BBX 11 16 0 0
BITMAP
8020
8020
4040
2080
1100
0a00
0400
0400
0400
0400
0400
0400
0400
0400
0400
0400
ENDCHAR
STARTCHAR LATIN CAPITAL LETTER Z
ENCODING 90
SWIDTH 1090 0
DWIDTH 12 0
BBX 10 16 1 0
BITMAP
ffc0
0040
0040
0040
0080
0100
0200
0400
0800
1000
2000
4000
8000
8000
8000
ffc0
ENDCHAR
STARTCHAR LEFT SQUARE BRACKET
ENCODING 91
SWIDTH 1090 0
DWIDTH 12 0
BBX 6 22 3 -4
BITMAP
fc
80
80
80
80
80
80
80
80
80
80
80
80
80
80
80
80
80
80
80
80
fc
ENDCHAR
STARTCHAR REVERSE SOLIDUS
ENCODING 92
SWIDTH 1090 0
DWIDTH 12 0
BBX 10 20 2 -4
BITMAP
8000
8000
4000
4000
2000
2000
1000
1000
0800
0800
0400
0400
0200
0200
0100
0100
0080
0080
0040
0040
ENDCHAR
STARTCHAR RIGHT SQUARE BRACKET
ENCODING 93
SWIDTH 1090 0
DWIDTH 12 0
BBX 6 22 3 -4
BITMAP
fc
04
04
04
04
04
04
04
04
04
04
04
04
04
04
04
04
04
04
04
04
fc
ENDCHAR
STARTCHAR CIRCUMFLEX ACCENT
ENCODING 94
SWIDTH 1090 0
DWIDTH 12 0
BBX 10 5 1 8
BITMAP
0c00
1200
2100
4080
8040
ENDCHAR
STARTCHAR LOW LINE
ENCODING 95
SWIDTH 1090 0
DWIDTH 12 0
BBX 12 1 0 -1
BITMAP
fff0
ENDCHAR
STARTCHAR GRAVE ACCENT
ENCODING 96
SWIDTH 1090 0
DWIDTH 12 0
BBX 6 6 2 10
BITMAP
80
40
20
10
08
04
ENDCHAR
STARTCHAR LATIN SMALL LETTER A
ENCODING 97
SWIDTH 1090 0
DWIDTH 12 0
BBX 8 9 2 0
BITMAP
7e
01
01
7f
81
81
81
81
7f
ENDCHAR
STARTCHAR LATIN SMALL LETTER B
ENCODING 98
SWIDTH 1090 0
DWIDTH 12 0
BBX 8 16 2 0
BITMAP
80
80
80
80
80
80
80
be
c1
81
81
81
81
81
81
fe
ENDCHAR
STARTCHAR LATIN SMALL LETTER C
ENCODING 99
SWIDTH 1090 0
DWIDTH 12 0
BBX 8 9 2 0
BITMAP
7f
80
80
80
80
80
80
80
7f
ENDCHAR
STARTCHAR LATIN SMALL LETTER D
ENCODING 100
SWIDTH 1090 0
DWIDTH 12 0
BBX 8 16 2 0
BITMAP
01
01
01
01
01
01
01
7f
81
81
81
81
81
81
83
7d
ENDCHAR
STARTCHAR LATIN SMALL LETTER E
ENCODING 101
SWIDTH 1090 0
DWIDTH 12 0
BBX 8 9 2 0
BITMAP
7e
81
81
81
ff
80
80
80
7f
ENDCHAR
STARTCHAR LATIN SMALL LETTER F
ENCODING 102
SWIDTH 1090 0
DWIDTH 12 0
BBX 5 15 4 0
BITMAP
78
80
80
80
80
80
f8
80
80
80
80
80
80
80
80
ENDCHAR
STARTCHAR LATIN SMALL LETTER G
ENCODING 103
SWIDTH 1090 0
DWIDTH 12 0
BBX 8 12 2 -3
BITMAP
7f
81
81
81
81
81
87
79
01
01
01
7e
ENDCHAR
STARTCHAR LATIN SMALL LETTER H
ENCODING 104
SWIDTH 1090 0
DWIDTH 12 0
BBX 8 16 2 0
BITMAP
80
80
80
80
80
80
80
bc
c3
81
81
81
81
81
81
81
ENDCHAR
STARTCHAR LATIN SMALL LETTER I
ENCODING 105
SWIDTH 1090 0
DWIDTH 12 0
BBX 6 13 3 0
BITMAP
60
00
00
00
e0
20
20
20
20
20
20
20
3c
ENDCHAR
STARTCHAR LATIN SMALL LETTER J
ENCODING 106
SWIDTH 1090 0
DWIDTH 12 0
BBX 5 16 2 -3
BITMAP
18
00
00
00
38
08
08
08
08
08
08
08
08
08
08
f0
ENDCHAR
STARTCHAR LATIN SMALL LETTER K
ENCODING 107
SWIDTH 1090 0
DWIDTH 12 0
BBX 8 16 2 0
BITMAP
80
80
80
80
80
80
82
84
88
90
e0
90
88
84
82
81
ENDCHAR
STARTCHAR LATIN SMALL LETTER L
ENCODING 108
SWIDTH 1090 0
DWIDTH 12 0
BBX 7 15 3 0
BITMAP
e0
20
20
20
20
20
20
20
20
20
20
20
20
20
1e
ENDCHAR
STARTCHAR LATIN SMALL LETTER M
ENCODING 109
SWIDTH 1090 0
DWIDTH 12 0
BBX 9 9 1 0
BITMAP
ff00
8880
8880
8880
8880
8880
8880
8880
8880
ENDCHAR
STARTCHAR LATIN SMALL LETTER N
ENCODING 110
SWIDTH 1090 0
DWIDTH 12 0
BBX 8 9 2 0
BITMAP
fe
81
81
81
81
81
81
81
81
ENDCHAR
STARTCHAR LATIN SMALL LETTER O
ENCODING 111
SWIDTH 1090 0
DWIDTH 12 0
BBX 8 9 2 0
BITMAP
7e
81
81
81
81
81
81
81
7e
ENDCHAR
STARTCHAR LATIN SMALL LETTER P
ENCODING 112
SWIDTH 1090 0
DWIDTH 12 0
BBX 9 13 1 -4
BITMAP
bf00
c080
8080
8080
8080
8080
8080
8100
fe00
8000
8000
8000
8000
ENDCHAR
STARTCHAR LATIN SMALL LETTER Q
ENCODING 113
SWIDTH 1090 0
DWIDTH 12 0
BBX 10 13 0 -4
BITMAP
3fc0
4040
8040
8040
8040
8040
81c0
4240
3c40
0040
0040
0040
0040
ENDCHAR
STARTCHAR LATIN SMALL LETTER R
ENCODING 114
SWIDTH 1090 0
DWIDTH 12 0
BBX 8 9 2 0
BITMAP
9e
e1
80
80
80
80
80
80
80
ENDCHAR
STARTCHAR LATIN SMALL LETTER S
ENCODING 115
SWIDTH 1090 0
DWIDTH 12 0
BBX 9 9 2 0
BITMAP
7f00
8000
8000
8000
7f00
0080
0080
0080
ff00
ENDCHAR
STARTCHAR LATIN SMALL LETTER T
ENCODING 116
SWIDTH 1090 0
DWIDTH 12 0
BBX 8 16 2 0
BITMAP
20
20
20
20
20
20
20
ff
20
20
20
20
20
20
10
0f
ENDCHAR
STARTCHAR LATIN SMALL LETTER U
ENCODING 117
SWIDTH 1090 0
DWIDTH 12 0
BBX 9 9 1 0
BITMAP
8080
8080
8080
8080
8080
8080
8080
8180
7e80
ENDCHAR
STARTCHAR LATIN SMALL LETTER V
ENCODING 118
SWIDTH 1090 0
DWIDTH 12 0
BBX 8 9 2 0
BITMAP
81
81
81
81
42
42
24
24
18
ENDCHAR
STARTCHAR LATIN SMALL LETTER W
ENCODING 119
SWIDTH 1090 0
DWIDTH 12 0
BBX 9 9 1 0
BITMAP
8080
8080
8880
8880
8880
8880
8880
8880
7700
ENDCHAR
STARTCHAR LATIN SMALL LETTER X
ENCODING 120
SWIDTH 1090 0
DWIDTH 12 0
BBX 10 9 1 0
BITMAP
8040
4080
2100
1200
0c00
1200
2100
4080
8040
ENDCHAR
STARTCHAR LATIN SMALL LETTER Y
ENCODING 121
SWIDTH 1090 0
DWIDTH 12 0
BBX 9 12 1 -3
BITMAP
8080
8080
8080
8080
8080
8080
8080
7f80
0080
0080
0080
7f00
ENDCHAR
STARTCHAR LATIN SMALL LETTER Z
ENCODING 122
SWIDTH 1090 0
DWIDTH 12 0
BBX 9 9 1 0
BITMAP
ff80
0100
0200
0400
0800
1000
2000
4000
ff80
ENDCHAR
STARTCHAR LEFT CURLY BRACKET
ENCODING 123
SWIDTH 1090 0
DWIDTH 12 0
BBX 10 22 0 -4
BITMAP
03c0
0400
0800
0800
0800
0800
0800
0800
0800
0800
f000
0800
0800
0800
0800
0800
0800
0800
0800
0800
0400
03c0
ENDCHAR
STARTCHAR VERTICAL LINE
ENCODING 124
SWIDTH 1090 0
DWIDTH 12 0
BBX 1 18 5 -2
BITMAP
80
80
80
80
80
80
80
80
80
80
80
80
80
80
80
80
80
80
ENDCHAR
STARTCHAR RIGHT CURLY BRACKET
ENCODING 125
SWIDTH 1090 0
DWIDTH 12 0
BBX 10 22 2 -4
BITMAP
f000
0800
0400
0400
0400
0400
0400
0400
0400
0400
03c0
0400
0400
0400
0400
0400
0400
0400
0400
0400
0800
f000
ENDCHAR
STARTCHAR TILDE
ENCODING 126
SWIDTH 1090 0
DWIDTH 12 0
BBX 10 4 1 5
BITMAP
3000
4840
8480
0300
ENDCHAR
STARTCHAR NO-BREAK SPACE
ENCODING 160
SWIDTH 1090 0
DWIDTH 12 0
BBX 0 0 0 0
BITMAP
ENDCHAR
STARTCHAR INVERTED EXCLAMATION MARK
ENCODING 161
SWIDTH 1090 0
DWIDTH 12 0
BBX 2 16 4 0
BITMAP
c0
c0
00
00
c0
c0
c0
c0
c0
c0
c0
c0
c0
c0
c0
c0
ENDCHAR
STARTCHAR CENT SIGN
ENCODING 162
SWIDTH 1090 0
DWIDTH 12 0
BBX 10 14 0 -2
BITMAP
0c00
0c00
3fc0
3fc0
cc00
cc00
cc00
cc00
cc00
cc00
3fc0
3fc0
0c00
0c00
ENDCHAR
STARTCHAR POUND SIGN
ENCODING 163
SWIDTH 1090 0
DWIDTH 12 0
BBX 10 16 0 0
BITMAP
0f00
0f00
30c0
30c0
3000
3000
3000
3000
fc00
fc00
3000
3000
30c0
30c0
cf00
cf00
ENDCHAR
STARTCHAR CURRENCY SIGN
ENCODING 164
SWIDTH 1090 0
DWIDTH 12 0
BBX 10 10 0 0
BITMAP
c0c0
c0c0
3f00
3f00
3300
3300
3f00
3f00
c0c0
c0c0
ENDCHAR
STARTCHAR YEN SIGN
ENCODING 165
SWIDTH 1090 0
DWIDTH 12 0
BBX 10 18 0 -2
BITMAP
c0c0
c0c0
c0c0
c0c0
3300
3300
0c00
0c00
ffc0
ffc0
0c00
0c00
ffc0
ffc0
0c00
0c00
0c00
0c00
ENDCHAR
STARTCHAR BROKEN BAR
ENCODING 166
SWIDTH 1090 0
DWIDTH 12 0
BBX 2 18 4 -2
BITMAP
c0
c0
c0
c0
c0
c0
c0
c0
00
00
c0
c0
c0
c0
c0
c0
c0
c0
ENDCHAR
STARTCHAR SECTION SIGN
ENCODING 167
SWIDTH 1090 0
DWIDTH 12 0
BBX 8 18 2 -2
BITMAP
3f
3f
c0
c0
c0
c0
fc
fc
c3
c3
3f
3f
03
03
03
03
fc
fc
ENDCHAR
STARTCHAR DIAERESIS
ENCODING 168
SWIDTH 1090 0
DWIDTH 12 0
BBX 6 2 2 14
BITMAP
cc
cc
ENDCHAR
STARTCHAR COPYRIGHT SIGN
ENCODING 169
SWIDTH 1090 0
DWIDTH 12 0
BBX 10 14 0 0
BITMAP
3f00
3f00
c0c0
c0c0
ccc0
ccc0
f0c0
f0c0
ccc0
ccc0
c0c0
c0c0
3f00
3f00
ENDCHAR
STARTCHAR FEMININE ORDINAL INDICATOR
ENCODING 170
SWIDTH 1090 0
DWIDTH 12 0
BBX 8 12 2 2
BITMAP
3f
3f
c3
c3
cf
cf
33
33
00
00
ff
ff
ENDCHAR
STARTCHAR LEFT-POINTING DOUBLE ANGLE QUOTATION MARK
ENCODING 171
SWIDTH 1090 0
DWIDTH 12 0
BBX 12 10 0 2
BITMAP
0c30
0c30
30c0
30c0
c300
c300
30c0
30c0
0c30
0c30
ENDCHAR
STARTCHAR NOT SIGN
ENCODING 172
SWIDTH 1090 0
DWIDTH 12 0
BBX 8 4 2 4
BITMAP
ff
ff
03
03
ENDCHAR
STARTCHAR SOFT HYPHEN
ENCODING 173
SWIDTH 1090 0
DWIDTH 12 0
BBX 8 2 2 6
BITMAP
ff
ff
ENDCHAR
STARTCHAR REGISTERED SIGN
ENCODING 174
SWIDTH 1090 0
DWIDTH 12 0
BBX 10 14 0 0
BITMAP
3f00
3f00
c0c0
c0c0
fcc0
fcc0
f0c0
f0c0
f0c0
f0c0
c0c0
c0c0
3f00
3f00
ENDCHAR
STARTCHAR MACRON
ENCODING 175
SWIDTH 1090 0
DWIDTH 12 0
BBX 10 1 0 14
BITMAP
ffc0
ENDCHAR
STARTCHAR DEGREE SIGN
ENCODING 176
SWIDTH 1090 0
DWIDTH 12 0
BBX 4 4 3 9
BITMAP
60
90
90
60
ENDCHAR
STARTCHAR PLUS-MINUS SIGN
ENCODING 177
SWIDTH 1090 0
DWIDTH 12 0
BBX 9 10 1 0
BITMAP
0800
0800
0800
0800
ff80
0800
0800
0800
0800
ff80
ENDCHAR
STARTCHAR SUPERSCRIPT TWO
ENCODING 178
SWIDTH 1090 0
DWIDTH 12 0
BBX 8 10 2 6
BITMAP
3c
3c
c3
c3
0c
0c
30
30
ff
ff
ENDCHAR
STARTCHAR SUPERSCRIPT THREE
ENCODING 179
SWIDTH 1090 0
DWIDTH 12 0
BBX 8 10 2 6
BITMAP
fc
fc
03
03
3c
3c
03
03
fc
fc
ENDCHAR
STARTCHAR ACUTE ACCENT
ENCODING 180
SWIDTH 1090 0
DWIDTH 12 0
BBX 4 4 4 12
BITMAP
10
20
40
80
ENDCHAR
STARTCHAR MICRO SIGN
ENCODING 181
SWIDTH 1090 0
DWIDTH 12 0
BBX 10 12 0 -2
BITMAP
c0c0
c0c0
c0c0
c0c0
c0c0
c0c0
f0c0
f0c0
cf00
cf00
c000
c000
ENDCHAR
STARTCHAR PILCROW SIGN
ENCODING 182
SWIDTH 1090 0
DWIDTH 12 0
BBX 10 14 0 0
BITMAP
3fc0
3fc0
fcc0
fcc0
fcc0
fcc0
3cc0
3cc0
0cc0
0cc0
0cc0
0cc0
0cc0
0cc0
ENDCHAR
STARTCHAR MIDDLE DOT
ENCODING 183
SWIDTH 1090 0
DWIDTH 12 0
BBX 2 2 4 6
BITMAP
c0
c0
ENDCHAR
STARTCHAR CEDILLA
ENCODING 184
SWIDTH 1090 0
DWIDTH 12 0
BBX 4 4 4 -4
BITMAP
10
20
40
80
ENDCHAR
STARTCHAR SUPERSCRIPT ONE
ENCODING 185
SWIDTH 1090 0
DWIDTH 12 0
BBX 6 10 2 6
BITMAP
30
30
f0
f0
30
30
30
30
fc
fc
ENDCHAR
STARTCHAR MASCULINE ORDINAL INDICATOR
ENCODING 186
SWIDTH 1090 0
DWIDTH 12 0
BBX 8 12 2 2
BITMAP
3c
3c
c3
c3
c3
c3
3c
3c
00
00
ff
ff
ENDCHAR
STARTCHAR RIGHT-POINTING DOUBLE ANGLE QUOTATION MARK
ENCODING 187
SWIDTH 1090 0
DWIDTH 12 0
BBX 12 10 0 2
BITMAP
c300
c300
30c0
30c0
0c30
0c30
30c0
30c0
c300
c300
ENDCHAR
STARTCHAR VULGAR FRACTION ONE QUARTER
ENCODING 188
SWIDTH 1090 0
DWIDTH 12 0
BBX 12 18 0 -2
BITMAP
3000
3000
f000
f000
3000
3000
3000
3000
fc30
fc30
00f0
00f0
0330
0330
0ff0
0ff0
0030
0030
ENDCHAR
STARTCHAR VULGAR FRACTION ONE HALF
ENCODING 189
SWIDTH 1090 0
DWIDTH 12 0
BBX 12 18 0 -2
BITMAP
3000
3000
f000
f000
3000
3000
3000
3000
fcc0
fcc0
0330
0330
0030
0030
00c0
00c0
03f0
03f0
ENDCHAR
STARTCHAR VULGAR FRACTION THREE QUARTERS
ENCODING 190
SWIDTH 1090 0
DWIDTH 12 0
BBX 10 18 0 -2
BITMAP
f000
f000
0c00
0c00
3000
3000
0c00
0c00
f0c0
f0c0
03c0
03c0
0cc0
0cc0
3fc0
3fc0
00c0
00c0
ENDCHAR
STARTCHAR INVERTED QUESTION MARK
ENCODING 191
SWIDTH 1090 0
DWIDTH 12 0
BBX 10 14 0 0
BITMAP
0c00
0c00
0000
0000
0c00
0c00
3000
3000
c000
c000
c0c0
c0c0
3f00
3f00
ENDCHAR
STARTCHAR LATIN CAPITAL LETTER A WITH GRAVE
ENCODING 192
SWIDTH 1090 0
DWIDTH 12 0
BBX 10 18 0 0
BITMAP
3000
3000
0c00
0c00
3f00
3f00
c0c0
c0c0
c0c0
c0c0
ffc0
ffc0
c0c0
c0c0
c0c0
c0c0
c0c0
c0c0
ENDCHAR
STARTCHAR LATIN CAPITAL LETTER A WITH ACUTE
ENCODING 193
SWIDTH 1090 0
DWIDTH 12 0
BBX 10 18 0 0
BITMAP
0300
0300
0c00
0c00
3f00
3f00
c0c0
c0c0
c0c0
c0c0
ffc0
ffc0
c0c0
c0c0
c0c0
c0c0
c0c0
c0c0
ENDCHAR
STARTCHAR LATIN CAPITAL LETTER A WITH CIRCUMFLEX
ENCODING 194
SWIDTH 1090 0
DWIDTH 12 0
BBX 10 18 0 0
BITMAP
0c00
0c00
3300
3300
0000
0000
3f00
3f00
c0c0
c0c0
c0c0
c0c0
ffc0
ffc0
c0c0
c0c0
c0c0
c0c0
ENDCHAR
STARTCHAR LATIN CAPITAL LETTER A WITH TILDE
ENCODING 195
SWIDTH 1090 0
DWIDTH 12 0
BBX 10 18 0 0
BITMAP
3cc0
3cc0
cf00
cf00
0000
0000
3f00
3f00
c0c0
c0c0
c0c0
c0c0
ffc0
ffc0
c0c0
c0c0
c0c0
c0c0
ENDCHAR
STARTCHAR LATIN CAPITAL LETTER A WITH DIAERESIS
ENCODING 196
SWIDTH 1090 0
DWIDTH 12 0
BBX 10 18 0 0
BITMAP
3300
3300
0000
0000
3f00
3f00
c0c0
c0c0
c0c0
c0c0
ffc0
ffc0
c0c0
c0c0
c0c0
c0c0
c0c0
c0c0
ENDCHAR
STARTCHAR LATIN CAPITAL LETTER A WITH RING ABOVE
ENCODING 197
SWIDTH 1090 0
DWIDTH 12 0
BBX 10 18 0 0
BITMAP
0c00
0c00
3300
3300
0c00
0c00
3f00
3f00
c0c0
c0c0
c0c0
c0c0
ffc0
ffc0
c0c0
c0c0
c0c0
c0c0
ENDCHAR
STARTCHAR LATIN CAPITAL LETTER AE
ENCODING 198
SWIDTH 1090 0
DWIDTH 12 0
BBX 10 14 0 0
BITMAP
3fc0
3fc0
cc00
cc00
cc00
cc00
ff00
ff00
cc00
cc00
cc00
cc00
cfc0
cfc0
ENDCHAR
STARTCHAR LATIN CAPITAL LETTER C WITH CEDILLA
ENCODING 199
SWIDTH 1090 0
DWIDTH 12 0
BBX 10 18 0 -4
BITMAP
3f00
3f00
c0c0
c0c0
c000
c000
c000
c000
c000
c000
c0c0
c0c0
3f00
3f00
0c00
0c00
3000
3000
ENDCHAR
STARTCHAR LATIN CAPITAL LETTER E WITH GRAVE
ENCODING 200
SWIDTH 1090 0
DWIDTH 12 0
BBX 10 18 0 0
BITMAP
3000
3000
0c00
0c00
ffc0
ffc0
c000
c000
c000
c000
ff00
ff00
c000
c000
c000
c000
ffc0
ffc0
ENDCHAR
STARTCHAR LATIN CAPITAL LETTER E WITH ACUTE
ENCODING 201
SWIDTH 1090 0
DWIDTH 12 0
BBX 10 18 0 0
BITMAP
0300
0300
0c00
0c00
ffc0
ffc0
c000
c000
c000
c000
ff00
ff00
c000
c000
c000
c000
ffc0
ffc0
ENDCHAR
STARTCHAR LATIN CAPITAL LETTER E WITH CIRCUMFLEX
ENCODING 202
SWIDTH 1090 0
DWIDTH 12 0
BBX 10 18 0 0
BITMAP
0c00
0c00
3300
3300
ffc0
ffc0
c000
c000
c000
c000
ff00
ff00
c000
c000
c000
c000
ffc0
ffc0
ENDCHAR
STARTCHAR LATIN CAPITAL LETTER E WITH DIAERESIS
ENCODING 203
SWIDTH 1090 0
DWIDTH 12 0
BBX 10 18 0 0
BITMAP
3300
3300
0000
0000
ffc0
ffc0
c000
c000
c000
c000
ff00
ff00
c000
c000
c000
c000
ffc0
ffc0
ENDCHAR
STARTCHAR LATIN CAPITAL LETTER I WITH GRAVE
ENCODING 204
SWIDTH 1090 0
DWIDTH 12 0
BBX 6 18 2 0
BITMAP
30
30
0c
0c
00
00
fc
fc
30
30
30
30
30
30
30
30
fc
fc
ENDCHAR
STARTCHAR LATIN CAPITAL LETTER I WITH ACUTE
ENCODING 205
SWIDTH 1090 0
DWIDTH 12 0
BBX 6 18 2 0
BITMAP
30
30
c0
c0
00
00
fc
fc
30
30
30
30
30
30
30
30
fc
fc
ENDCHAR
STARTCHAR LATIN CAPITAL LETTER I WITH CIRCUMFLEX
ENCODING 206
SWIDTH 1090 0
DWIDTH 12 0
BBX 6 18 2 0
BITMAP
30
30
cc
cc
00
00
fc
fc
30
30
30
30
30
30
30
30
fc
fc
ENDCHAR
STARTCHAR LATIN CAPITAL LETTER I WITH DIAERESIS
ENCODING 207
SWIDTH 1090 0
DWIDTH 12 0
BBX 6 18 2 0
BITMAP
cc
cc
00
00
fc
fc
30
30
30
30
30
30
30
30
30
30
fc
fc
ENDCHAR
STARTCHAR LATIN CAPITAL LETTER ETH
ENCODING 208
SWIDTH 1090 0
DWIDTH 12 0
BBX 10 14 0 0
BITMAP
3f00
3f00
30c0
30c0
30c0
30c0
fcc0
fcc0
30c0
30c0
30c0
30c0
3f00
3f00
ENDCHAR
STARTCHAR LATIN CAPITAL LETTER N WITH TILDE
ENCODING 209
SWIDTH 1090 0
DWIDTH 12 0
BBX 10 18 0 0
BITMAP
3cc0
3cc0
cf00
cf00
c0c0
c0c0
f0c0
f0c0
ccc0
ccc0
c3c0
c3c0
c0c0
c0c0
c0c0
c0c0
c0c0
c0c0
ENDCHAR
STARTCHAR LATIN CAPITAL LETTER O WITH GRAVE
ENCODING 210
SWIDTH 1090 0
DWIDTH 12 0
BBX 10 18 0 0
BITMAP
3000
3000
0c00
0c00
3f00
3f00
c0c0
c0c0
c0c0
c0c0
c0c0
c0c0
c0c0
c0c0
c0c0
c0c0
3f00
3f00
ENDCHAR
STARTCHAR LATIN CAPITAL LETTER O WITH ACUTE
ENCODING 211
SWIDTH 1090 0
DWIDTH 12 0
BBX 10 18 0 0
BITMAP
0300
0300
0c00
0c00
3f00
3f00
c0c0
c0c0
c0c0
c0c0
c0c0
c0c0
c0c0
c0c0
c0c0
c0c0
3f00
3f00
ENDCHAR
STARTCHAR LATIN CAPITAL LETTER O WITH CIRCUMFLEX
ENCODING 212
SWIDTH 1090 0
DWIDTH 12 0
BBX 10 18 0 0
BITMAP
0c00
0c00
3300
3300
0000
0000
3f00
3f00
c0c0
c0c0
c0c0
c0c0
c0c0
c0c0
c0c0
c0c0
3f00
3f00
ENDCHAR
STARTCHAR LATIN CAPITAL LETTER O WITH TILDE
ENCODING 213
SWIDTH 1090 0
DWIDTH 12 0
BBX 10 18 0 0
BITMAP
3cc0
3cc0
cf00
cf00
3f00
3f00
c0c0
c0c0
c0c0
c0c0
c0c0
c0c0
c0c0
c0c0
c0c0
c0c0
3f00
3f00
ENDCHAR
STARTCHAR LATIN CAPITAL LETTER O WITH DIAERESIS
ENCODING 214
SWIDTH 1090 0
DWIDTH 12 0
BBX 10 18 0 0
BITMAP
3300
3300
0000
0000
3f00
3f00
c0c0
c0c0
c0c0
c0c0
c0c0
c0c0
c0c0
c0c0
c0c0
c0c0
3f00
3f00
ENDCHAR
STARTCHAR MULTIPLICATION SIGN
ENCODING 215
SWIDTH 1090 0
DWIDTH 12 0
BBX 10 10 0 2
BITMAP
c0c0
c0c0
3300
3300
0c00
0c00
3300
3300
c0c0
c0c0
ENDCHAR
STARTCHAR LATIN CAPITAL LETTER O WITH STROKE
ENCODING 216
SWIDTH 1090 0
DWIDTH 12 0
BBX 12 12 0 2
BITMAP
3f30
3f30
c0c0
c0c0
c3c0
c3c0
ccc0
ccc0
f0c0
f0c0
ff00
ff00
ENDCHAR
STARTCHAR LATIN CAPITAL LETTER U WITH GRAVE
ENCODING 217
SWIDTH 1090 0
DWIDTH 12 0
BBX 10 18 0 0
BITMAP
3000
3000
0c00
0c00
c0c0
c0c0
c0c0
c0c0
c0c0
c0c0
c0c0
c0c0
c0c0
c0c0
c0c0
c0c0
3f00
3f00
ENDCHAR
STARTCHAR LATIN CAPITAL LETTER U WITH ACUTE
ENCODING 218
SWIDTH 1090 0
DWIDTH 12 0
BBX 10 18 0 0
BITMAP
0300
0300
0c00
0c00
c0c0
c0c0
c0c0
c0c0
c0c0
c0c0
c0c0
c0c0
c0c0
c0c0
c0c0
c0c0
3f00
3f00
ENDCHAR
STARTCHAR LATIN CAPITAL LETTER U WITH CIRCUMFLEX
ENCODING 219
SWIDTH 1090 0
DWIDTH 12 0
BBX 10 18 0 0
BITMAP
0300
0300
0c00
0c00
c0c0
c0c0
c0c0
c0c0
c0c0
c0c0
c0c0
c0c0
c0c0
c0c0
c0c0
c0c0
3f00
3f00
ENDCHAR
STARTCHAR LATIN CAPITAL LETTER U WITH DIAERESIS
ENCODING 220
SWIDTH 1090 0
DWIDTH 12 0
BBX 10 18 0 0
BITMAP
3300
3300
0000
0000
c0c0
c0c0
c0c0
c0c0
c0c0
c0c0
c0c0
c0c0
c0c0
c0c0
c0c0
c0c0
3f00
3f00
ENDCHAR
STARTCHAR LATIN CAPITAL LETTER Y WITH ACUTE
ENCODING 221
SWIDTH 1090 0
DWIDTH 12 0
BBX 10 18 0 0
BITMAP
0300
0300
0c00
0c00
c0c0
c0c0
c0c0
c0c0
c0c0
c0c0
3300
3300
0c00
0c00
0c00
0c00
0c00
0c00
ENDCHAR
STARTCHAR LATIN CAPITAL LETTER THORN
ENCODING 222
SWIDTH 1090 0
DWIDTH 12 0
BBX 10 14 0 0
BITMAP
c000
c000
ff00
ff00
c0c0
c0c0
c0c0
c0c0
ff00
ff00
c000
c000
c000
c000
ENDCHAR
STARTCHAR LATIN SMALL LETTER SHARP S
ENCODING 223
SWIDTH 1090 0
DWIDTH 12 0
BBX 10 18 0 -2
BITMAP
0f00
0f00
30c0
30c0
c0c0
c0c0
c300
c300
c300
c300
c0c0
c0c0
c0c0
c0c0
cf00
cf00
c000
c000
ENDCHAR
STARTCHAR LATIN SMALL LETTER A WITH GRAVE
ENCODING 224
SWIDTH 1090 0
DWIDTH 12 0
BBX 10 16 0 0
BITMAP
0c00
0c00
0300
0300
0000
0000
3f00
3f00
00c0
00c0
3fc0
3fc0
c0c0
c0c0
3fc0
3fc0
ENDCHAR
STARTCHAR LATIN SMALL LETTER A WITH ACUTE
ENCODING 225
SWIDTH 1090 0
DWIDTH 12 0
BBX 10 16 0 0
BITMAP
0300
0300
0c00
0c00
0000
0000
3f00
3f00
00c0
00c0
3fc0
3fc0
c0c0
c0c0
3fc0
3fc0
ENDCHAR
STARTCHAR LATIN SMALL LETTER A WITH CIRCUMFLEX
ENCODING 226
SWIDTH 1090 0
DWIDTH 12 0
BBX 10 16 0 0
BITMAP
0c00
0c00
3300
3300
0000
0000
3f00
3f00
00c0
00c0
3fc0
3fc0
c0c0
c0c0
3fc0
3fc0
ENDCHAR
STARTCHAR LATIN SMALL LETTER A WITH TILDE
ENCODING 227
SWIDTH 1090 0
DWIDTH 12 0
BBX 10 16 0 0
BITMAP
3cc0
3cc0
cf00
cf00
0000
0000
3f00
3f00
00c0
00c0
3fc0
3fc0
c0c0
c0c0
3fc0
3fc0
ENDCHAR
STARTCHAR LATIN SMALL LETTER A WITH DIAERESIS
ENCODING 228
SWIDTH 1090 0
DWIDTH 12 0
BBX 10 14 0 0
BITMAP
3300
3300
0000
0000
3f00
3f00
00c0
00c0
3fc0
3fc0
c0c0
c0c0
3fc0
3fc0
ENDCHAR
STARTCHAR LATIN SMALL LETTER A WITH RING ABOVE
ENCODING 229
SWIDTH 1090 0
DWIDTH 12 0
BBX 10 16 0 0
BITMAP
0c00
0c00
3300
3300
0c00
0c00
3f00
3f00
00c0
00c0
3fc0
3fc0
c0c0
c0c0
3fc0
3fc0
ENDCHAR
STARTCHAR LATIN SMALL LETTER AE
ENCODING 230
SWIDTH 1090 0
DWIDTH 12 0
BBX 10 10 0 0
BITMAP
3f00
3f00
ccc0
ccc0
cfc0
cfc0
cc00
cc00
3fc0
3fc0
ENDCHAR
STARTCHAR LATIN SMALL LETTER C WITH CEDILLA
ENCODING 231
SWIDTH 1090 0
DWIDTH 12 0
BBX 10 14 0 -4
BITMAP
3fc0
3fc0
c000
c000
c000
c000
c000
c000
3fc0
3fc0
0c00
0c00
3000
3000
ENDCHAR
STARTCHAR LATIN SMALL LETTER E WITH GRAVE
ENCODING 232
SWIDTH 1090 0
DWIDTH 12 0
BBX 10 16 0 0
BITMAP
3000
3000
0c00
0c00
0000
0000
3f00
3f00
c0c0
c0c0
ffc0
ffc0
c000
c000
3fc0
3fc0
ENDCHAR
STARTCHAR LATIN SMALL LETTER E WITH ACUTE
ENCODING 233
SWIDTH 1090 0
DWIDTH 12 0
BBX 10 16 0 0
BITMAP
0300
0300
0c00
0c00
0000
0000
3f00
3f00
c0c0
c0c0
ffc0
ffc0
c000
c000
3fc0
3fc0
ENDCHAR
STARTCHAR LATIN SMALL LETTER E WITH CIRCUMFLEX
ENCODING 234
SWIDTH 1090 0
DWIDTH 12 0
BBX 10 16 0 0
BITMAP
0c00
0c00
3300
3300
0000
0000
3f00
3f00
c0c0
c0c0
ffc0
ffc0
c000
c000
3fc0
3fc0
ENDCHAR
STARTCHAR LATIN SMALL LETTER E WITH DIAERESIS
ENCODING 235
SWIDTH 1090 0
DWIDTH 12 0
BBX 10 14 0 0
BITMAP
3300
3300
0000
0000
3f00
3f00
c0c0
c0c0
ffc0
ffc0
c000
c000
3fc0
3fc0
ENDCHAR
STARTCHAR LATIN SMALL LETTER I WITH GRAVE
ENCODING 236
SWIDTH 1090 0
DWIDTH 12 0
BBX 4 16 4 0
BITMAP
c0
c0
30
30
00
00
c0
c0
c0
c0
c0
c0
c0
c0
c0
c0
ENDCHAR
STARTCHAR LATIN SMALL LETTER I WITH ACUTE
ENCODING 237
SWIDTH 1090 0
DWIDTH 12 0
BBX 4 16 2 0
BITMAP
30
30
c0
c0
00
00
30
30
30
30
30
30
30
30
30
30
ENDCHAR
STARTCHAR LATIN SMALL LETTER I WITH CIRCUMFLEX
ENCODING 238
SWIDTH 1090 0
DWIDTH 12 0
BBX 6 16 2 0
BITMAP
30
30
cc
cc
00
00
30
30
30
30
30
30
30
30
30
30
ENDCHAR
STARTCHAR LATIN SMALL LETTER I WITH DIAERESIS
ENCODING 239
SWIDTH 1090 0
DWIDTH 12 0
BBX 6 14 2 0
BITMAP
cc
cc
00
00
30
30
30
30
30
30
30
30
30
30
ENDCHAR
STARTCHAR LATIN SMALL LETTER ETH
ENCODING 240
SWIDTH 1090 0
DWIDTH 12 0
BBX 10 16 0 0
BITMAP
3c00
3c00
3c00
3c00
0300
0300
3fc0
3fc0
c0c0
c0c0
c0c0
c0c0
c0c0
c0c0
3f00
3f00
ENDCHAR
STARTCHAR LATIN SMALL LETTER N WITH TILDE
ENCODING 241
SWIDTH 1090 0
DWIDTH 12 0
BBX 10 16 0 0
BITMAP
3300
3300
cc00
cc00
0000
0000
ff00
ff00
c0c0
c0c0
c0c0
c0c0
c0c0
c0c0
c0c0
c0c0
ENDCHAR
STARTCHAR LATIN SMALL LETTER O WITH GRAVE
ENCODING 242
SWIDTH 1090 0
DWIDTH 12 0
BBX 10 16 0 0
BITMAP
3000
3000
0c00
0c00
0000
0000
3f00
3f00
c0c0
c0c0
c0c0
c0c0
c0c0
c0c0
3f00
3f00
ENDCHAR
STARTCHAR LATIN SMALL LETTER O WITH ACUTE
ENCODING 243
SWIDTH 1090 0
DWIDTH 12 0
BBX 10 16 0 0
BITMAP
0300
0300
0c00
0c00
0000
0000
3f00
3f00
c0c0
c0c0
c0c0
c0c0
c0c0
c0c0
3f00
3f00
ENDCHAR
STARTCHAR LATIN SMALL LETTER O WITH CIRCUMFLEX
ENCODING 244
SWIDTH 1090 0
DWIDTH 12 0
BBX 10 16 0 0
BITMAP
0c00
0c00
3300
3300
0000
0000
3f00
3f00
c0c0
c0c0
c0c0
c0c0
c0c0
c0c0
3f00
3f00
ENDCHAR
STARTCHAR LATIN SMALL LETTER O WITH TILDE
ENCODING 245
SWIDTH 1090 0
DWIDTH 12 0
BBX 10 16 0 0
BITMAP
3300
3300
cc00
cc00
0000
0000
3f00
3f00
c0c0
c0c0
c0c0
c0c0
c0c0
c0c0
3f00
3f00
ENDCHAR
STARTCHAR LATIN SMALL LETTER O WITH DIAERESIS
ENCODING 246
SWIDTH 1090 0
DWIDTH 12 0
BBX 10 14 0 0
BITMAP
3300
3300
0000
0000
3f00
3f00
c0c0
c0c0
c0c0
c0c0
c0c0
c0c0
3f00
3f00
ENDCHAR
STARTCHAR DIVISION SIGN
ENCODING 247
SWIDTH 1090 0
DWIDTH 12 0
BBX 10 10 0 2
BITMAP
0c00
0c00
0000
0000
ffc0
ffc0
0000
0000
0c00
0c00
ENDCHAR
STARTCHAR LATIN SMALL LETTER O WITH STROKE
ENCODING 248
SWIDTH 1090 0
DWIDTH 12 0
BBX 10 10 0 0
BITMAP
3f00
3f00
c3c0
c3c0
ccc0
ccc0
f0c0
f0c0
3f00
3f00
ENDCHAR
STARTCHAR LATIN SMALL LETTER U WITH GRAVE
ENCODING 249
SWIDTH 1090 0
DWIDTH 12 0
BBX 10 16 0 0
BITMAP
3000
3000
0c00
0c00
0000
0000
c0c0
c0c0
c0c0
c0c0
c0c0
c0c0
c3c0
c3c0
3cc0
3cc0
ENDCHAR
STARTCHAR LATIN SMALL LETTER U WITH ACUTE
ENCODING 250
SWIDTH 1090 0
DWIDTH 12 0
BBX 10 16 0 0
BITMAP
0300
0300
0c00
0c00
0000
0000
c0c0
c0c0
c0c0
c0c0
c0c0
c0c0
c3c0
c3c0
3cc0
3cc0
ENDCHAR
STARTCHAR LATIN SMALL LETTER U WITH CIRCUMFLEX
ENCODING 251
SWIDTH 1090 0
DWIDTH 12 0
BBX 10 16 0 0
BITMAP
0c00
0c00
3300
3300
0000
0000
c0c0
c0c0
c0c0
c0c0
c0c0
c0c0
c3c0
c3c0
3cc0
3cc0
ENDCHAR
STARTCHAR LATIN SMALL LETTER U WITH DIAERESIS
ENCODING 252
SWIDTH 1090 0
DWIDTH 12 0
BBX 10 14 0 0
BITMAP
3300
3300
0000
0000
c0c0
c0c0
c0c0
c0c0
c0c0
c0c0
c3c0
c3c0
3cc0
3cc0
ENDCHAR
STARTCHAR LATIN SMALL LETTER Y WITH ACUTE
ENCODING 253
SWIDTH 1090 0
DWIDTH 12 0
BBX 10 20 0 -4
BITMAP
0300
0300
0c00
0c00
0000
0000
c0c0
c0c0
c0c0
c0c0
c0c0
c0c0
c3c0
c3c0
3cc0
3cc0
00c0
00c0
3f00
3f00
ENDCHAR
STARTCHAR LATIN SMALL LETTER THORN
ENCODING 254
SWIDTH 1090 0
DWIDTH 12 0
BBX 10 18 0 -4
BITMAP
c000
c000
c000
c000
ff00
ff00
c0c0
c0c0
c0c0
c0c0
c0c0
c0c0
ff00
ff00
c000
c000
c000
c000
ENDCHAR
STARTCHAR LATIN SMALL LETTER Y WITH DIAERESIS
ENCODING 255
SWIDTH 1090 0
DWIDTH 12 0
BBX 10 18 0 -4
BITMAP
3300
3300
0000
0000
c0c0
c0c0
c0c0
c0c0
c0c0
c0c0
c3c0
c3c0
3cc0
3cc0
00c0
00c0
3f00
3f00
ENDCHAR
ENDFONT
